<svg version="1.1" id="Layer_1" xmlns="http://www.w3.org/2000/svg" xmlns:xlink="http://www.w3.org/1999/xlink" x="0px" y="0px"
	 width="100%" viewBox="0 0 256 256" enable-background="new 0 0 256 256" xml:space="preserve">
<path fill="" opacity="0" stroke="none" 
	d="
M169.000000,257.000000 
	C112.666672,257.000000 56.833340,257.000000 1.000008,257.000000 
	C1.000005,171.666672 1.000005,86.333351 1.000003,1.000019 
	C86.333321,1.000013 171.666641,1.000013 257.000000,1.000006 
	C257.000000,86.333313 257.000000,171.666626 257.000000,256.999969 
	C227.833328,257.000000 198.666672,257.000000 169.000000,257.000000 
M167.623428,84.070786 
	C165.379654,86.863968 162.745834,89.429260 160.958191,92.488945 
	C152.246857,107.399048 143.741867,122.430016 135.202759,137.440338 
	C128.278702,149.611633 121.371658,161.792938 114.531143,174.011276 
	C110.582100,181.064972 106.779984,188.200912 102.530212,196.000000 
	C114.580750,196.000000 125.845818,196.092499 137.108765,195.977509 
	C152.549118,195.819870 164.498184,188.713638 173.084915,176.332764 
	C178.075638,169.136826 181.871307,161.112015 186.204269,153.459946 
	C199.368286,130.212112 212.543701,106.970695 225.684128,83.709511 
	C227.776276,80.005966 229.710907,76.213440 231.965622,72.000000 
	C220.546921,72.000000 210.054123,72.111526 199.564713,71.970650 
	C187.524445,71.808952 177.151382,75.777161 167.623428,84.070786 
M99.010490,115.284515 
	C99.323311,113.983116 99.636131,112.681717 100.039543,111.003448 
	C79.794197,111.003448 60.147224,110.839462 40.505447,111.087166 
	C33.037704,111.181335 25.840574,118.442696 26.449757,125.999985 
	C45.231705,125.999985 64.041237,125.911469 82.849220,126.043228 
	C90.450775,126.096481 95.642998,122.726463 99.010490,115.284515 
M83.468796,76.000000 
	C86.460648,75.999100 89.459831,76.132538 92.442856,75.969818 
	C98.989937,75.612717 104.546715,68.560074 103.318680,62.002632 
	C83.437645,62.002632 63.505894,61.890366 43.576656,62.064911 
	C36.809078,62.124184 30.651661,69.565086 31.691168,76.000000 
	C48.594166,76.000000 65.536316,76.000000 83.468796,76.000000 
z"/>
<path fill="#be123c" opacity="1.000000" stroke="none" 
	d="
M167.982422,84.002960 
	C177.151382,75.777161 187.524445,71.808952 199.564713,71.970650 
	C210.054123,72.111526 220.546921,72.000000 231.965622,72.000000 
	C229.710907,76.213440 227.776276,80.005966 225.684128,83.709511 
	C212.543701,106.970695 199.368286,130.212112 186.204269,153.459946 
	C181.871307,161.112015 178.075638,169.136826 173.084915,176.332764 
	C164.498184,188.713638 152.549118,195.819870 137.108765,195.977509 
	C125.845818,196.092499 114.580750,196.000000 102.530212,196.000000 
	C106.779984,188.200912 110.582100,181.064972 114.531143,174.011276 
	C121.371658,161.792938 128.278702,149.611633 135.202759,137.440338 
	C143.741867,122.430016 152.246857,107.399048 160.958191,92.488945 
	C162.745834,89.429260 165.379654,86.863968 167.982422,84.002960 
z"/>
<path fill="#be123c" opacity="1.000000" stroke="none" 
	d="
M98.980972,115.681221 
	C95.642998,122.726463 90.450775,126.096481 82.849220,126.043228 
	C64.041237,125.911469 45.231705,125.999985 26.449757,125.999985 
	C25.840574,118.442696 33.037704,111.181335 40.505447,111.087166 
	C60.147224,110.839462 79.794197,111.003448 100.039543,111.003448 
	C99.636131,112.681717 99.323311,113.983116 98.980972,115.681221 
z"/>
<path fill="#be123c" opacity="1.000000" stroke="none" 
	d="
M82.973633,76.000000 
	C65.536316,76.000000 48.594166,76.000000 31.691168,76.000000 
	C30.651661,69.565086 36.809078,62.124184 43.576656,62.064911 
	C63.505894,61.890366 83.437645,62.002632 103.318680,62.002632 
	C104.546715,68.560074 98.989937,75.612717 92.442856,75.969818 
	C89.459831,76.132538 86.460648,75.999100 82.973633,76.000000 
z"/>
</svg>